#!OML:ASF X:\für Bonn\!DataBase\2005_08_11_Bastian_Final\c3d\Bastian.ASF
:FULLY-SPECIFIED
:DEGREES
196
root -0.438186 17.9134 -0.474162 161.348 -60.9824 -172.183
lowerback 8.09653 -5.63308 2.89797
upperback 0.934014 -7.27852 3.46518
thorax -3.44547 -3.70313 2.77475
lowerneck 5.03037 -15.9602 -7.26462
upperneck -8.18628 -21.3528 13.5476
head -0.972503 -11.0091 5.22844
rclavicle -1.85864e-014 8.74653e-014
rhumerus 46.5917 -12.9479 -13.929
rradius 52.2051
rwrist -251.93
rhand 8.57516 -17.1112
rfingers 7.12502
rthumb 33.7737 -403.945
lclavicle -1.85864e-014 8.74653e-014
lhumerus 444.123 -11.3531 -306.603
lradius 49.3167
lwrist -138.796
lhand -18.3704 22.1217
lfingers 7.12502
lthumb 7.91283 51.9536
rfemur 2.38272 0.721684 26.4426
rtibia 33.7869
rfoot -17.6108 -21.354
rtoes 8.74164
lfemur 4.84024 12.418 -1.24316
ltibia 39.7728
lfoot 1.55341 3.05715
ltoes -40.7777
197
root -0.412697 17.891 -0.460035 160.774 -60.8957 -171.673
lowerback 8.24751 -5.60564 3.05688
upperback 1.04781 -7.23068 3.49803
thorax -3.42667 -3.68411 2.72638
lowerneck 5.16218 -15.9787 -7.03458
upperneck -8.45953 -21.3516 13.6257
head -1.08943 -11.0276 5.25237
rclavicle -7.15625e-014 -3.26007e-014
rhumerus 45.0307 -12.5695 -14.5276
rradius 54.7929
rwrist -251.717
rhand 8.19268 -17.4289
rfingers 7.12502
rthumb 33.4102 -404.342
lclavicle -7.15625e-014 -3.26007e-014
lhumerus 443.498 -11.8034 -306.65
lradius 50.5595
lwrist -138.589
lhand -18.4533 22.2928
lfingers 7.12502
lthumb 7.83279 52.1277
rfemur 2.40096 0.526721 26.7143
rtibia 33.7848
rfoot -17.7473 -21.2947
rtoes 8.98941
lfemur 4.64364 12.3923 -0.982616
ltibia 40.2318
lfoot 1.23533 3.17058
ltoes -40.8939
198
root -0.386017 17.8671 -0.44547 160.208 -60.8155 -171.194
lowerback 8.4356 -5.57477 3.17259
upperback 1.17415 -7.1809 3.52974
thorax -3.40998 -3.66372 2.70309
lowerneck 5.20059 -16.0055 -6.71909
upperneck -8.68926 -21.3549 13.6283
head -1.19627 -11.0449 5.23518
rclavicle -1.55151e-013 4.45278e-014
rhumerus 43.4006 -12.1257 -15.005
rradius 57.4253
rwrist -251.643
rhand 7.81786 -17.7563
rfingers 7.12502
rthumb 33.0538 -404.745
lclavicle -1.55151e-013 4.45278e-014
lhumerus 442.847 -12.266 -306.804
lradius 51.9217
lwrist -138.375
lhand -18.4214 22.4384
lfingers 7.12502
lthumb 7.86362 52.2722
rfemur 2.43003 0.272482 26.9565
rtibia 33.7923
rfoot -17.8832 -21.1853
rtoes 9.11474
lfemur 4.45004 12.3496 -0.737646
ltibia 40.7147
lfoot 0.932775 3.27494
ltoes -40.995
199
root -0.359243 17.8432 -0.430408 159.654 -60.7157 -170.731
lowerback 8.64248 -5.54531 3.26994
upperback 1.2869 -7.13274 3.5718
thorax -3.41398 -3.64394 2.70355
lowerneck 5.23512 -16.0262 -6.41206
upperneck -8.90451 -21.3514 13.6314
head -1.29804 -11.0586 5.21832
rclavicle 3.62782e-014 5.1684e-014
rhumerus 41.6832 -11.5643 -15.3923
rradius 60.1602
rwrist -251.658
rhand 7.50183 -18.1547
rfingers 7.12502
rthumb 32.7532 -405.207
lclavicle 3.62782e-014 5.1684e-014
lhumerus 442.126 -12.7356 -307.07
lradius 53.3618
lwrist -138.106
lhand -18.3033 22.6356
lfingers 7.12502
lthumb 7.97757 52.465
rfemur 2.45215 0.0013302 27.1871
rtibia 33.805
rfoot -17.9996 -21.0594
rtoes 9.20057
lfemur 4.24882 12.3207 -0.496477
ltibia 41.2199
lfoot 0.62087 3.38494
ltoes -41.1208
200
root -0.331956 17.8192 -0.413839 159.099 -60.6078 -170.264
lowerback 8.84626 -5.51394 3.36883
upperback 1.41466 -7.08339 3.61901
thorax -3.3999 -3.62406 2.70668
lowerneck 5.24922 -16.0486 -6.07988
upperneck -9.16085 -21.3448 13.6246
head -1.41302 -11.0718 5.19693
rclavicle -2.33572e-014 -6.67916e-014
rhumerus 39.9554 -10.938 -15.7119
rradius 62.8925
rwrist -251.822
rhand 7.19222 -18.5473
rfingers 7.12502
rthumb 32.4586 -405.66
lclavicle -2.33572e-014 -6.67916e-014
lhumerus 441.379 -13.1879 -307.457
lradius 54.9192
lwrist -137.8
lhand -18.1099 22.8667
lfingers 7.12502
lthumb 8.16425 52.6889
rfemur 2.4591 -0.332579 27.4001
rtibia 33.8356
rfoot -18.0693 -20.8972
rtoes 9.39919
lfemur 4.0299 12.2633 -0.267498
ltibia 41.7409
lfoot 0.294417 3.50376
ltoes -41.2416
201
root -0.305255 17.7947 -0.397294 158.599 -60.4831 -169.852
lowerback 9.04208 -5.47142 3.45738
upperback 1.53852 -7.01965 3.64545
thorax -3.38692 -3.59641 2.69146
lowerneck 5.22146 -16.0798 -5.69546
upperneck -9.37263 -21.3497 13.6045
head -1.5143 -11.0905 5.15919
rclavicle -7.14631e-014 2.38542e-014
rhumerus 38.1107 -10.234 -15.9578
rradius 65.6793
rwrist -252.027
rhand 6.92974 -18.952
rfingers 7.12502
rthumb 32.2088 -406.116
lclavicle -7.14631e-014 2.38542e-014
lhumerus 440.596 -13.7005 -307.909
lradius 56.5554
lwrist -137.552
lhand -17.8766 23.168
lfingers 7.12502
lthumb 8.38938 52.9814
rfemur 2.44526 -0.648442 27.5909
rtibia 33.8759
rfoot -18.1172 -20.742
rtoes 9.32633
lfemur 3.81438 12.2168 -0.0592457
ltibia 42.2756
lfoot -0.0297151 3.64483
ltoes -41.3496
202
root -0.278482 17.7697 -0.379867 158.096 -60.3473 -169.457
lowerback 9.25944 -5.43561 3.5211
upperback 1.66684 -6.96723 3.70127
thorax -3.37404 -3.57502 2.72322
lowerneck 5.18601 -16.0989 -5.4224
upperneck -9.57505 -21.3449 13.6152
head -1.59716 -11.1021 5.14117
rclavicle 1.28117e-013 3.02153e-014
rhumerus 36.2175 -9.51843 -16.2992
rradius 68.5365
rwrist -252.143
rhand 6.58533 -19.2935
rfingers 7.12502
rthumb 31.8809 -406.523
lclavicle 1.28117e-013 3.02153e-014
lhumerus 439.747 -14.2154 -308.292
lradius 58.2098
lwrist -137.416
lhand -17.7033 23.6058
lfingers 7.12502
lthumb 8.55665 53.4124
rfemur 2.44224 -1.02964 27.7503
rtibia 33.9313
rfoot -18.1614 -20.4951
rtoes 9.42512
lfemur 3.61806 12.1484 0.138003
ltibia 42.814
lfoot -0.359202 3.77161
ltoes -41.445
203
root -0.251628 17.7447 -0.362032 157.654 -60.1948 -169.114
lowerback 9.46144 -5.38346 3.59953
upperback 1.78043 -6.89039 3.72869
thorax -3.37359 -3.54075 2.71385
lowerneck 5.2423 -16.1273 -5.15174
upperneck -9.85288 -21.3499 13.6738
head -1.71034 -11.1253 5.14954
rclavicle 2.48481e-015 2.38542e-014
rhumerus 34.157 -8.778 -16.8385
rradius 71.4881
rwrist -252.076
rhand 6.16925 -19.5469
rfingers 7.12502
rthumb 31.4846 -406.855
lclavicle 2.48481e-015 2.38542e-014
lhumerus 438.811 -14.8133 -308.684
lradius 59.9999
lwrist -137.352
lhand -17.6018 24.0783
lfingers 7.12502
lthumb 8.65462 53.8809
rfemur 2.41259 -1.40532 27.8864
rtibia 33.9944
rfoot -18.2216 -20.2517
rtoes 9.54232
lfemur 3.40837 12.0633 0.294244
ltibia 43.3556
lfoot -0.685507 3.93111
ltoes -41.6007
